<?xml version="1.0" standalone="no"?>
<!DOCTYPE svg PUBLIC "-//W3C//DTD SVG 20010904//EN"
 "http://www.w3.org/TR/2001/REC-SVG-20010904/DTD/svg10.dtd">
<svg version="1.0" xmlns="http://www.w3.org/2000/svg"
 width="387.000000pt" height="375.000000pt" viewBox="0 0 387.000000 375.000000"
 preserveAspectRatio="xMidYMid meet">
<metadata>
Created by potrace 1.13, written by Peter Selinger 2001-2015
</metadata>
<g transform="translate(0.000000,375.000000) scale(0.100000,-0.100000)"
fill="#000000" stroke="none">
<path d="M1514 1983 c-462 -746 -840 -1359 -841 -1362 -1 -3 14 -16 33 -28
l34 -22 263 128 c1175 573 1528 743 1541 738 7 -3 16 -16 19 -29 3 -13 58
-257 123 -543 64 -286 120 -524 124 -528 10 -12 90 11 90 25 0 11 -194 876
-207 923 -4 15 3 12 31 -15 l36 -34 36 35 36 36 -64 60 c-35 33 -75 71 -89 84
-23 21 -48 89 -33 89 3 0 50 -36 103 -80 54 -44 102 -80 107 -80 16 0 67 72
57 79 -6 3 -249 199 -541 435 l-530 428 37 62 c21 33 156 252 300 485 144 233
261 424 259 426 -18 12 -77 45 -80 45 -3 0 -383 -611 -844 -1357z m584 -133
c191 -177 348 -324 350 -328 2 -7 -1568 -775 -1573 -770 -3 3 868 1417 873
1418 1 0 159 -144 350 -320z"/>
</g>
</svg>
